CommonSerif-Bold.ufo
<glyph name="r" format="2">
  <advance width="427"/>
  <unicode hex="0072"/>
  <anchor x="221" y="500" name="t.uni0302"/>
  <anchor x="162" y="-60" name="b.minus-60"/>
  <outline>
    <contour>
      <point x="227" y="110" type="line"/>
      <point x="227" y="268" type="line" smooth="yes"/>
      <point x="227" y="298"/>
      <point x="245" y="351"/>
      <point x="283" y="351" type="curve" smooth="yes"/>
      <point x="292" y="351"/>
      <point x="303" y="342"/>
      <point x="311" y="332" type="curve"/>
      <point x="318" y="324"/>
      <point x="335" y="316"/>
      <point x="358" y="316" type="curve" smooth="yes"/>
      <point x="387" y="316"/>
      <point x="415" y="346"/>
      <point x="415" y="388" type="curve" smooth="yes"/>
      <point x="415" y="414"/>
      <point x="385" y="444"/>
      <point x="349" y="444" type="curve" smooth="yes"/>
      <point x="314" y="444"/>
      <point x="276" y="414"/>
      <point x="230" y="348" type="curve"/>
      <point x="227" y="348" type="line"/>
      <point x="225" y="378"/>
      <point x="220" y="427"/>
      <point x="220" y="427" type="curve"/>
      <point x="219" y="436"/>
      <point x="211" y="444"/>
      <point x="197" y="444" type="curve"/>
      <point x="149" y="432"/>
      <point x="96" y="418"/>
      <point x="30" y="411" type="curve"/>
      <point x="28" y="405"/>
      <point x="30" y="386"/>
      <point x="32" y="380" type="curve"/>
      <point x="87" y="375"/>
      <point x="97" y="366"/>
      <point x="97" y="309" type="curve" smooth="yes"/>
      <point x="97" y="110" type="line"/>
    </contour>
    <contour>
      <point x="25" y="-2" type="curve"/>
      <point x="67" y="-1"/>
      <point x="114" y="0"/>
      <point x="167" y="0" type="curve"/>
      <point x="167" y="122" type="line"/>
      <point x="97" y="122" type="line"/>
      <point x="97" y="39"/>
      <point x="86" y="35"/>
      <point x="25" y="32" type="curve"/>
      <point x="19" y="26"/>
      <point x="19" y="4"/>
    </contour>
    <contour>
      <point x="157" y="0" type="line"/>
      <point x="202" y="-1"/>
      <point x="254" y="-1"/>
      <point x="299" y="-2" type="curve"/>
      <point x="305" y="4"/>
      <point x="305" y="26"/>
      <point x="299" y="32" type="curve"/>
      <point x="238" y="35"/>
      <point x="227" y="39"/>
      <point x="227" y="122" type="curve"/>
      <point x="157" y="122" type="line"/>
    </contour>
  </outline>
</glyph>
<glyph name="yen" format="2">
  <advance width="540"/>
  <unicode hex="00A5"/>
  <anchor x="273" y="677" name="top"/>
  <outline>
    <contour>
      <point x="349" y="287" type="line"/>
      <point x="445" y="510" type="line"/>
      <point x="464" y="548.522"/>
      <point x="487" y="564"/>
      <point x="532" y="568" type="curve"/>
      <point x="538" y="574"/>
      <point x="538" y="596"/>
      <point x="532" y="602" type="curve"/>
      <point x="507" y="601"/>
      <point x="482" y="600"/>
      <point x="461" y="600" type="curve" smooth="yes"/>
      <point x="449" y="600" type="line" smooth="yes"/>
      <point x="426" y="600"/>
      <point x="388" y="601"/>
      <point x="348" y="602" type="curve"/>
      <point x="342" y="596"/>
      <point x="342" y="574"/>
      <point x="348" y="568" type="curve"/>
      <point x="383.079" y="565.608"/>
      <point x="401.633" y="561.945"/>
      <point x="401.633" y="545.862" type="curve" smooth="yes"/>
      <point x="401.633" y="541.772"/>
      <point x="400.522" y="536.842"/>
      <point x="398" y="531" type="curve" smooth="yes"/>
      <point x="310.891" y="327.745" type="line"/>
      <point x="320.192" y="327.745" type="line"/>
      <point x="223" y="531" type="line" smooth="yes"/>
      <point x="218.215" y="541.081"/>
      <point x="217.06" y="545.14"/>
      <point x="217.06" y="549.009" type="curve" smooth="yes"/>
      <point x="217.06" y="560.37"/>
      <point x="229.8" y="565.9"/>
      <point x="269" y="568" type="curve"/>
      <point x="275" y="574"/>
      <point x="275" y="596"/>
      <point x="269" y="602" type="curve"/>
      <point x="229" y="601"/>
      <point x="190" y="600"/>
      <point x="150" y="600" type="curve" smooth="yes"/>
      <point x="120" y="600" type="line" smooth="yes"/>
      <point x="83" y="600"/>
      <point x="36" y="601"/>
      <point x="13" y="602" type="curve"/>
      <point x="7" y="596"/>
      <point x="8" y="574"/>
      <point x="14" y="568" type="curve"/>
      <point x="51" y="565"/>
      <point x="76.4285" y="548.829"/>
      <point x="98" y="510" type="curve" smooth="yes"/>
      <point x="223.708" y="278.248" type="line"/>
      <point x="219" y="277.939" type="line"/>
      <point x="219" y="122" type="line" smooth="yes"/>
      <point x="219" y="39"/>
      <point x="202" y="35"/>
      <point x="122" y="32" type="curve"/>
      <point x="116" y="26"/>
      <point x="116" y="4"/>
      <point x="122" y="-2" type="curve"/>
      <point x="167" y="-1"/>
      <point x="216" y="0"/>
      <point x="274" y="0" type="curve" smooth="yes"/>
      <point x="292" y="0" type="line" smooth="yes"/>
      <point x="352" y="0"/>
      <point x="396" y="-1"/>
      <point x="446" y="-2" type="curve"/>
      <point x="452" y="4"/>
      <point x="452" y="26"/>
      <point x="446" y="32" type="curve"/>
      <point x="366" y="35"/>
      <point x="349" y="39"/>
      <point x="349" y="122" type="curve" smooth="yes"/>
    </contour>
    <contour>
      <point x="252.5" y="287" type="line"/>
      <point x="128.487" y="286.712" type="line" smooth="yes"/>
      <point x="114.52" y="286.68"/>
      <point x="98" y="271.55"/>
      <point x="98" y="261" type="curve" smooth="yes"/>
      <point x="98" y="251" type="line" smooth="yes"/>
      <point x="98" y="247.34"/>
      <point x="100.34" y="245"/>
      <point x="103.751" y="245" type="curve" smooth="yes"/>
      <point x="252.5" y="245" type="line"/>
    </contour>
    <contour>
      <point x="314" y="245" type="line"/>
      <point x="448" y="245" type="line" smooth="yes"/>
      <point x="460.694" y="245"/>
      <point x="478" y="256.898"/>
      <point x="478" y="267.099" type="curve" smooth="yes"/>
      <point x="478" y="280.672" type="line" smooth="yes"/>
      <point x="478" y="284.646"/>
      <point x="475.646" y="287"/>
      <point x="472.011" y="287" type="curve" smooth="yes"/>
      <point x="314" y="287" type="line"/>
    </contour>
    <contour>
      <point x="252.5" y="177" type="line"/>
      <point x="128" y="177" type="line" smooth="yes"/>
      <point x="115.493" y="177"/>
      <point x="98" y="156.227"/>
      <point x="98" y="145" type="curve" smooth="yes"/>
      <point x="98" y="141" type="line" smooth="yes"/>
      <point x="98" y="137.326"/>
      <point x="100.326" y="135"/>
      <point x="103.523" y="135" type="curve" smooth="yes"/>
      <point x="252.5" y="135" type="line"/>
    </contour>
    <contour>
      <point x="478" y="171" type="line" smooth="yes"/>
      <point x="478" y="174.645"/>
      <point x="475.645" y="177"/>
      <point x="472" y="177" type="curve" smooth="yes"/>
      <point x="314" y="177" type="line"/>
      <point x="314" y="135" type="line"/>
      <point x="448" y="135" type="line" smooth="yes"/>
      <point x="461.468" y="135"/>
      <point x="478" y="150.43"/>
      <point x="478" y="160.922" type="curve" smooth="yes"/>
    </contour>
  </outline>
</glyph>
<glyph name="uni01B2" format="2">
  <advance width="676"/>
  <unicode hex="01B2"/>
  <outline>
    <contour>
      <point x="79" y="571" type="curve" smooth="yes"/>
      <point x="79" y="222" type="line" smooth="yes"/>
      <point x="79" y="33"/>
      <point x="190.597" y="-12"/>
      <point x="331.349" y="-12" type="curve" smooth="yes"/>
      <point x="437.919" y="-12"/>
      <point x="640" y="42"/>
      <point x="640" y="372" type="curve" smooth="yes"/>
      <point x="640" y="525"/>
      <point x="594" y="658"/>
      <point x="470" y="658" type="curve" smooth="yes"/>
      <point x="428" y="658"/>
      <point x="345" y="644"/>
      <point x="345" y="589" type="curve" smooth="yes"/>
      <point x="345" y="561"/>
      <point x="377" y="555"/>
      <point x="397" y="555" type="curve" smooth="yes"/>
      <point x="448" y="555"/>
      <point x="457" y="592"/>
      <point x="458" y="601" type="curve"/>
      <point x="460" y="615"/>
      <point x="464" y="621"/>
      <point x="469" y="621" type="curve" smooth="yes"/>
      <point x="542" y="621"/>
      <point x="551" y="403"/>
      <point x="551" y="353" type="curve" smooth="yes"/>
      <point x="551" y="142"/>
      <point x="443.939" y="31"/>
      <point x="334.896" y="31" type="curve" smooth="yes"/>
      <point x="224.861" y="31"/>
      <point x="209" y="131"/>
      <point x="209" y="250" type="curve" smooth="yes"/>
      <point x="209" y="571" type="line" smooth="yes"/>
      <point x="209" y="596"/>
      <point x="215.759" y="611"/>
      <point x="239.897" y="611" type="curve" smooth="yes"/>
      <point x="265" y="611" type="line" smooth="yes"/>
      <point x="282.379" y="611"/>
      <point x="293" y="615"/>
      <point x="293" y="623" type="curve" smooth="yes"/>
      <point x="293" y="638" type="line"/>
      <point x="284" y="647" type="line"/>
      <point x="284" y="647"/>
      <point x="177" y="645"/>
      <point x="142" y="645" type="curve" smooth="yes"/>
      <point x="104" y="645"/>
      <point x="3" y="647"/>
      <point x="3" y="647" type="curve"/>
      <point x="-6" y="638" type="line"/>
      <point x="-6" y="623" type="line" smooth="yes"/>
      <point x="-6" y="615"/>
      <point x="7.52273" y="611"/>
      <point x="22.9773" y="611" type="curve" smooth="yes"/>
      <point x="48.0909" y="611" type="line" smooth="yes"/>
      <point x="70.3068" y="611"/>
      <point x="79" y="599"/>
    </contour>
  </outline>
</glyph>
<glyph name="uni0268" format="2">
  <advance width="322"/>
  <unicode hex="0268"/>
  <anchor x="134" y="-114" name="m.uni0316_2"/>
  <outline>
    <contour>
      <point x="30" y="-2" type="curve"/>
      <point x="72" y="-1"/>
      <point x="119" y="0"/>
      <point x="172" y="0" type="curve"/>
      <point x="172" y="122" type="line"/>
      <point x="102" y="122" type="line"/>
      <point x="102" y="39"/>
      <point x="91" y="35"/>
      <point x="30" y="32" type="curve"/>
      <point x="24" y="26"/>
      <point x="24" y="4"/>
    </contour>
    <contour>
      <point x="182" y="228" type="line"/>
      <point x="182" y="276" type="line"/>
      <point x="55" y="276" type="line" smooth="yes"/>
      <point x="46" y="276"/>
      <point x="30" y="266"/>
      <point x="30" y="245" type="curve" smooth="yes"/>
      <point x="30" y="237"/>
      <point x="33" y="228"/>
      <point x="40" y="228" type="curve" smooth="yes"/>
    </contour>
    <contour>
      <point x="101.937" y="322" type="curve"/>
      <point x="231.937" y="322" type="line"/>
      <point x="231.937" y="373.375"/>
      <point x="233.015" y="401.678"/>
      <point x="235.937" y="427" type="curve"/>
      <point x="235.937" y="437.674"/>
      <point x="227.378" y="444"/>
      <point x="212.937" y="444" type="curve"/>
      <point x="183.701" y="432.306"/>
      <point x="99.627" y="419.08"/>
      <point x="34.9367" y="416" type="curve"/>
      <point x="33.2367" y="410.9"/>
      <point x="34.5081" y="389.286"/>
      <point x="36.9367" y="382" type="curve"/>
      <point x="89.5414" y="376.942"/>
      <point x="101.937" y="365.5"/>
    </contour>
    <contour>
      <point x="102" y="110" type="line"/>
      <point x="232" y="110" type="line"/>
      <point x="232" y="330" type="line"/>
      <point x="102" y="330" type="line"/>
    </contour>
    <contour>
      <point x="131" y="228" type="line"/>
      <point x="266" y="228" type="line" smooth="yes"/>
      <point x="277" y="228"/>
      <point x="291" y="240"/>
      <point x="291" y="257" type="curve" smooth="yes"/>
      <point x="291" y="266"/>
      <point x="288" y="276"/>
      <point x="281" y="276" type="curve" smooth="yes"/>
      <point x="131" y="276" type="line"/>
    </contour>
    <contour>
      <point x="97" y="594" type="curve" smooth="yes"/>
      <point x="97" y="563.158"/>
      <point x="119.737" y="530"/>
      <point x="164" y="530" type="curve" smooth="yes"/>
      <point x="209.282" y="530"/>
      <point x="232" y="563.131"/>
      <point x="232" y="594" type="curve" smooth="yes"/>
      <point x="232" y="625.869"/>
      <point x="209.32" y="658"/>
      <point x="164" y="658" type="curve" smooth="yes"/>
      <point x="119.7" y="658"/>
      <point x="97" y="625.842"/>
    </contour>
    <contour>
      <point x="167" y="0" type="line"/>
      <point x="207" y="0"/>
      <point x="271" y="-1"/>
      <point x="304" y="-2" type="curve"/>
      <point x="310" y="4"/>
      <point x="310" y="25"/>
      <point x="304" y="31" type="curve"/>
      <point x="243" y="35"/>
      <point x="232" y="40"/>
      <point x="232" y="122" type="curve"/>
      <point x="167" y="122" type="line"/>
    </contour>
  </outline>
</glyph>
<glyph name="uni030A" format="2">
  <unicode hex="030A"/>
  <outline>
    <contour>
      <point x="-287.773" y="612" type="curve" smooth="yes"/>
      <point x="-287.773" y="550.804"/>
      <point x="-233.505" y="500"/>
      <point x="-170" y="500" type="curve" smooth="yes"/>
      <point x="-106.495" y="500"/>
      <point x="-52.2268" y="550.804"/>
      <point x="-52.2268" y="612" type="curve" smooth="yes"/>
      <point x="-52.2268" y="673.196"/>
      <point x="-106.495" y="724"/>
      <point x="-170" y="724" type="curve" smooth="yes"/>
      <point x="-233.505" y="724"/>
      <point x="-287.773" y="673.196"/>
    </contour>
    <contour>
      <point x="-170" y="652.412" type="curve" smooth="yes"/>
      <point x="-145.753" y="652.412"/>
      <point x="-129.588" y="636.247"/>
      <point x="-129.588" y="612" type="curve" smooth="yes"/>
      <point x="-129.588" y="588.907"/>
      <point x="-146.907" y="571.588"/>
      <point x="-170" y="571.588" type="curve" smooth="yes"/>
      <point x="-193.093" y="571.588"/>
      <point x="-210.412" y="588.907"/>
      <point x="-210.412" y="612" type="curve" smooth="yes"/>
      <point x="-210.412" y="636.247"/>
      <point x="-194.247" y="652.412"/>
    </contour>
  </outline>
</glyph>
<glyph name="uni031E" format="2">
  <unicode hex="031E"/>
  <outline>
    <contour>
      <point x="-165" y="-60" type="curve"/>
      <point x="-334" y="-60" type="line"/>
      <point x="-337.377" y="-64.3723"/>
      <point x="-339.641" y="-71.6596"/>
      <point x="-340" y="-81" type="curve" smooth="yes"/>
      <point x="-340.283" y="-88.3555"/>
      <point x="-337.643" y="-97.6568"/>
      <point x="-334" y="-104" type="curve"/>
      <point x="-271" y="-104" type="line"/>
      <point x="-271" y="-213.5" type="line"/>
      <point x="-266.046" y="-218"/>
      <point x="-260.401" y="-221.497"/>
      <point x="-250.181" y="-221.205" type="curve" smooth="yes"/>
      <point x="-240.7" y="-220.934"/>
      <point x="-232.728" y="-218"/>
      <point x="-228" y="-213.5" type="curve"/>
      <point x="-228" y="-104" type="line"/>
      <point x="-165" y="-104" type="line"/>
      <point x="-161.663" y="-98.5758"/>
      <point x="-159" y="-90.8659"/>
      <point x="-159" y="-81" type="curve" smooth="yes"/>
      <point x="-159" y="-76.2029"/>
      <point x="-160.893" y="-66.9651"/>
    </contour>
  </outline>
</glyph>
<glyph name="uni041A" format="2">
  <advance width="708"/>
  <unicode hex="041A"/>
  <outline>
    <contour>
      <point x="30" y="-2" type="curve"/>
      <point x="70" y="-1"/>
      <point x="144" y="0"/>
      <point x="184" y="0" type="curve" smooth="yes"/>
      <point x="224" y="0"/>
      <point x="296" y="-1"/>
      <point x="336" y="-2" type="curve"/>
      <point x="346" y="4"/>
      <point x="346" y="26"/>
      <point x="336" y="32" type="curve"/>
      <point x="281" y="35"/>
      <point x="253" y="39"/>
      <point x="253" y="122" type="curve" smooth="yes"/>
      <point x="253" y="523" type="line" smooth="yes"/>
      <point x="253" y="606"/>
      <point x="281" y="610"/>
      <point x="336" y="613" type="curve"/>
      <point x="346" y="619"/>
      <point x="346" y="641"/>
      <point x="336" y="647" type="curve"/>
      <point x="296" y="646"/>
      <point x="224" y="645"/>
      <point x="184" y="645" type="curve" smooth="yes"/>
      <point x="144" y="645"/>
      <point x="70" y="646"/>
      <point x="30" y="647" type="curve"/>
      <point x="20" y="641"/>
      <point x="20" y="619"/>
      <point x="30" y="613" type="curve"/>
      <point x="85" y="610"/>
      <point x="113" y="606"/>
      <point x="113" y="523" type="curve" smooth="yes"/>
      <point x="113" y="122" type="line" smooth="yes"/>
      <point x="113" y="39"/>
      <point x="85" y="35"/>
      <point x="30" y="32" type="curve"/>
      <point x="20" y="26"/>
      <point x="20" y="4"/>
    </contour>
    <contour>
      <point x="242" y="309" type="line"/>
      <point x="329" y="309"/>
      <point x="355" y="272"/>
      <point x="398" y="161" type="curve" smooth="yes"/>
      <point x="440" y="54"/>
      <point x="521" y="-6"/>
      <point x="622" y="-6" type="curve" smooth="yes"/>
      <point x="642" y="-6"/>
      <point x="684" y="-4"/>
      <point x="705" y="-1" type="curve"/>
      <point x="711" y="5"/>
      <point x="711" y="27"/>
      <point x="705" y="33" type="curve"/>
      <point x="634" y="41"/>
      <point x="583" y="146"/>
      <point x="541" y="236" type="curve" smooth="yes"/>
      <point x="510" y="302"/>
      <point x="445" y="340"/>
      <point x="403" y="348" type="curve"/>
      <point x="403" y="353" type="line"/>
      <point x="422" y="362"/>
      <point x="443.365" y="402.253"/>
      <point x="458" y="438" type="curve" smooth="yes"/>
      <point x="471.78" y="471.658" type="line" smooth="yes"/>
      <point x="485.027" y="504.016"/>
      <point x="507.737" y="558"/>
      <point x="549" y="558" type="curve" smooth="yes"/>
      <point x="560" y="558"/>
      <point x="573.232" y="555.225"/>
      <point x="581" y="547" type="curve" smooth="yes"/>
      <point x="590.238" y="537.219"/>
      <point x="603" y="535"/>
      <point x="615" y="535" type="curve" smooth="yes"/>
      <point x="634" y="535"/>
      <point x="659" y="575"/>
      <point x="659" y="612" type="curve" smooth="yes"/>
      <point x="659" y="635"/>
      <point x="643" y="662"/>
      <point x="595" y="662" type="curve"/>
      <point x="516.343" y="662"/>
      <point x="464.313" y="578.075"/>
      <point x="438.739" y="512.435" type="curve" smooth="yes"/>
      <point x="423.749" y="473.961" type="line" smooth="yes"/>
      <point x="397.621" y="406.899"/>
      <point x="371.189" y="352.162"/>
      <point x="266.967" y="352.162" type="curve" smooth="yes"/>
      <point x="242" y="352.162" type="line"/>
    </contour>
  </outline>
</glyph>
<glyph name="uni0428" format="2">
  <advance width="1186"/>
  <unicode hex="0428"/>
  <outline>
    <contour>
      <point x="30" y="-2" type="curve"/>
      <point x="70" y="-1"/>
      <point x="142" y="0"/>
      <point x="182" y="0" type="curve" smooth="yes"/>
      <point x="1004" y="0" type="line" smooth="yes"/>
      <point x="1044" y="0"/>
      <point x="1116" y="-1"/>
      <point x="1156" y="-2" type="curve"/>
      <point x="1166" y="4"/>
      <point x="1166" y="26"/>
      <point x="1156" y="32" type="curve"/>
      <point x="1101" y="35"/>
      <point x="1073" y="39"/>
      <point x="1073" y="122" type="curve" smooth="yes"/>
      <point x="1073" y="523" type="line" smooth="yes"/>
      <point x="1073" y="606"/>
      <point x="1101" y="610"/>
      <point x="1156" y="613" type="curve"/>
      <point x="1166" y="619"/>
      <point x="1166" y="641"/>
      <point x="1156" y="647" type="curve"/>
      <point x="1116" y="646"/>
      <point x="1042" y="645"/>
      <point x="1002" y="645" type="curve" smooth="yes"/>
      <point x="962" y="645"/>
      <point x="890" y="646"/>
      <point x="850" y="647" type="curve"/>
      <point x="840" y="641"/>
      <point x="840" y="619"/>
      <point x="850" y="613" type="curve"/>
      <point x="905" y="610"/>
      <point x="933" y="606"/>
      <point x="933" y="523" type="curve" smooth="yes"/>
      <point x="933" y="122" type="line" smooth="yes"/>
      <point x="933" y="52"/>
      <point x="905" y="42"/>
      <point x="850" y="42" type="curve" smooth="yes"/>
      <point x="746" y="42" type="line" smooth="yes"/>
      <point x="691" y="42"/>
      <point x="663" y="52"/>
      <point x="663" y="122" type="curve" smooth="yes"/>
      <point x="663" y="523" type="line" smooth="yes"/>
      <point x="663" y="606"/>
      <point x="691" y="610"/>
      <point x="746" y="613" type="curve"/>
      <point x="756" y="619"/>
      <point x="756" y="641"/>
      <point x="746" y="647" type="curve"/>
      <point x="706" y="646"/>
      <point x="632" y="645"/>
      <point x="592" y="645" type="curve" smooth="yes"/>
      <point x="552" y="645"/>
      <point x="480" y="646"/>
      <point x="440" y="647" type="curve"/>
      <point x="430" y="641"/>
      <point x="430" y="619"/>
      <point x="440" y="613" type="curve"/>
      <point x="495" y="610"/>
      <point x="523" y="606"/>
      <point x="523" y="523" type="curve" smooth="yes"/>
      <point x="523" y="122" type="line" smooth="yes"/>
      <point x="523" y="52"/>
      <point x="495" y="42"/>
      <point x="440" y="42" type="curve" smooth="yes"/>
      <point x="336" y="42" type="line" smooth="yes"/>
      <point x="281" y="42"/>
      <point x="253" y="52"/>
      <point x="253" y="122" type="curve" smooth="yes"/>
      <point x="253" y="523" type="line" smooth="yes"/>
      <point x="253" y="606"/>
      <point x="281" y="610"/>
      <point x="336" y="613" type="curve"/>
      <point x="346" y="619"/>
      <point x="346" y="641"/>
      <point x="336" y="647" type="curve"/>
      <point x="296" y="646"/>
      <point x="222" y="645"/>
      <point x="182" y="645" type="curve" smooth="yes"/>
      <point x="142" y="645"/>
      <point x="70" y="646"/>
      <point x="30" y="647" type="curve"/>
      <point x="20" y="641"/>
      <point x="20" y="619"/>
      <point x="30" y="613" type="curve"/>
      <point x="85" y="610"/>
      <point x="113" y="606"/>
      <point x="113" y="523" type="curve" smooth="yes"/>
      <point x="113" y="122" type="line" smooth="yes"/>
      <point x="113" y="39"/>
      <point x="85" y="35"/>
      <point x="30" y="32" type="curve"/>
      <point x="20" y="26"/>
      <point x="20" y="4"/>
    </contour>
  </outline>
</glyph>
<glyph name="uni043F" format="2">
  <advance width="631"/>
  <unicode hex="043F"/>
  <outline>
    <contour>
      <point x="25" y="-2" type="curve"/>
      <point x="67" y="-1"/>
      <point x="112" y="0"/>
      <point x="167" y="0" type="curve" smooth="yes"/>
      <point x="215" y="0"/>
      <point x="266" y="-1"/>
      <point x="289" y="-2" type="curve"/>
      <point x="295" y="4"/>
      <point x="295" y="26"/>
      <point x="289" y="32" type="curve"/>
      <point x="248" y="35"/>
      <point x="232" y="44"/>
      <point x="232" y="127" type="curve" smooth="yes"/>
      <point x="232" y="307" type="line" smooth="yes"/>
      <point x="232" y="384"/>
      <point x="248" y="387"/>
      <point x="289" y="390" type="curve"/>
      <point x="340" y="390" type="line"/>
      <point x="381" y="387"/>
      <point x="397" y="385"/>
      <point x="397" y="307" type="curve" smooth="yes"/>
      <point x="397" y="127" type="line" smooth="yes"/>
      <point x="397" y="44"/>
      <point x="381" y="35"/>
      <point x="340" y="32" type="curve"/>
      <point x="334" y="26"/>
      <point x="334" y="4"/>
      <point x="340" y="-2" type="curve"/>
      <point x="363" y="-1"/>
      <point x="414" y="0"/>
      <point x="462" y="0" type="curve" smooth="yes"/>
      <point x="517" y="0"/>
      <point x="562" y="-1"/>
      <point x="604" y="-2" type="curve"/>
      <point x="610" y="4"/>
      <point x="610" y="26"/>
      <point x="604" y="32" type="curve"/>
      <point x="543" y="35"/>
      <point x="527" y="44"/>
      <point x="527" y="127" type="curve" smooth="yes"/>
      <point x="527" y="307" type="line" smooth="yes"/>
      <point x="527" y="390"/>
      <point x="543" y="399"/>
      <point x="604" y="402" type="curve"/>
      <point x="610" y="408"/>
      <point x="610" y="430"/>
      <point x="604" y="436" type="curve"/>
      <point x="561" y="435"/>
      <point x="472" y="434"/>
      <point x="462" y="434" type="curve" smooth="yes"/>
      <point x="167" y="434" type="line" smooth="yes"/>
      <point x="157" y="434"/>
      <point x="68" y="435"/>
      <point x="25" y="436" type="curve"/>
      <point x="19" y="430"/>
      <point x="19" y="408"/>
      <point x="25" y="402" type="curve"/>
      <point x="86" y="399"/>
      <point x="102" y="390"/>
      <point x="102" y="307" type="curve" smooth="yes"/>
      <point x="102" y="127" type="line" smooth="yes"/>
      <point x="102" y="44"/>
      <point x="86" y="35"/>
      <point x="25" y="32" type="curve"/>
      <point x="19" y="26"/>
      <point x="19" y="4"/>
    </contour>
  </outline>
</glyph>
<glyph name="uni0446" format="2">
  <advance width="631"/>
  <unicode hex="0446"/>
  <outline>
    <contour>
      <point x="25" y="-2" type="curve"/>
      <point x="68" y="-1"/>
      <point x="167" y="0"/>
      <point x="167" y="0" type="curve"/>
      <point x="444" y="0" type="line" smooth="yes"/>
      <point x="521" y="0"/>
      <point x="535" y="-60"/>
      <point x="549" y="-128" type="curve"/>
      <point x="562" y="-132"/>
      <point x="579" y="-131"/>
      <point x="592" y="-124" type="curve"/>
      <point x="602" y="7" type="line"/>
      <point x="602" y="20"/>
      <point x="601" y="38"/>
      <point x="595" y="44" type="curve"/>
      <point x="547" y="48"/>
      <point x="527" y="54"/>
      <point x="527" y="127" type="curve" smooth="yes"/>
      <point x="527" y="307" type="line" smooth="yes"/>
      <point x="527" y="390"/>
      <point x="543" y="399"/>
      <point x="604" y="402" type="curve"/>
      <point x="610" y="408"/>
      <point x="610" y="430"/>
      <point x="604" y="436" type="curve"/>
      <point x="562" y="435"/>
      <point x="517" y="434"/>
      <point x="462" y="434" type="curve" smooth="yes"/>
      <point x="414" y="434"/>
      <point x="363" y="435"/>
      <point x="340" y="436" type="curve"/>
      <point x="334" y="430"/>
      <point x="334" y="408"/>
      <point x="340" y="402" type="curve"/>
      <point x="381" y="399"/>
      <point x="397" y="390"/>
      <point x="397" y="307" type="curve" smooth="yes"/>
      <point x="397" y="127" type="line" smooth="yes"/>
      <point x="397" y="44"/>
      <point x="381" y="47"/>
      <point x="340" y="44" type="curve"/>
      <point x="289" y="44" type="line"/>
      <point x="248" y="47"/>
      <point x="232" y="44"/>
      <point x="232" y="127" type="curve" smooth="yes"/>
      <point x="232" y="307" type="line" smooth="yes"/>
      <point x="232" y="390"/>
      <point x="248" y="399"/>
      <point x="289" y="402" type="curve"/>
      <point x="295" y="408"/>
      <point x="295" y="430"/>
      <point x="289" y="436" type="curve"/>
      <point x="266" y="435"/>
      <point x="215" y="434"/>
      <point x="167" y="434" type="curve" smooth="yes"/>
      <point x="112" y="434"/>
      <point x="67" y="435"/>
      <point x="25" y="436" type="curve"/>
      <point x="19" y="430"/>
      <point x="19" y="408"/>
      <point x="25" y="402" type="curve"/>
      <point x="86" y="399"/>
      <point x="102" y="390"/>
      <point x="102" y="307" type="curve" smooth="yes"/>
      <point x="102" y="127" type="line" smooth="yes"/>
      <point x="102" y="44"/>
      <point x="86" y="35"/>
      <point x="25" y="32" type="curve"/>
      <point x="19" y="26"/>
      <point x="19" y="4"/>
    </contour>
  </outline>
</glyph>
<glyph name="uni049D" format="2">
  <advance width="636"/>
  <unicode hex="049D"/>
  <outline>
    <contour>
      <point x="259" y="71" type="line"/>
      <point x="346" y="71" type="line"/>
      <point x="346" y="358" type="line"/>
      <point x="259" y="358" type="line"/>
    </contour>
    <contour>
      <point x="232" y="307" type="line" smooth="yes"/>
      <point x="232" y="390"/>
      <point x="248" y="399"/>
      <point x="289" y="402" type="curve"/>
      <point x="295" y="408"/>
      <point x="295" y="430"/>
      <point x="289" y="436" type="curve"/>
      <point x="267" y="435"/>
      <point x="215" y="434"/>
      <point x="164" y="434" type="curve" smooth="yes"/>
      <point x="112" y="434"/>
      <point x="68" y="435"/>
      <point x="25" y="436" type="curve"/>
      <point x="19" y="430"/>
      <point x="19" y="408"/>
      <point x="25" y="402" type="curve"/>
      <point x="86" y="399"/>
      <point x="102" y="390"/>
      <point x="102" y="307" type="curve" smooth="yes"/>
      <point x="102" y="127" type="line" smooth="yes"/>
      <point x="102" y="44"/>
      <point x="86" y="35"/>
      <point x="25" y="32" type="curve"/>
      <point x="19" y="26"/>
      <point x="19" y="4"/>
      <point x="25" y="-2" type="curve"/>
      <point x="67" y="-1"/>
      <point x="112" y="0"/>
      <point x="163" y="0" type="curve" smooth="yes"/>
      <point x="215" y="0"/>
      <point x="266" y="-1"/>
      <point x="289" y="-2" type="curve"/>
      <point x="295" y="4"/>
      <point x="295" y="26"/>
      <point x="289" y="32" type="curve"/>
      <point x="248" y="35"/>
      <point x="232" y="44"/>
      <point x="232" y="127" type="curve" smooth="yes"/>
    </contour>
    <contour>
      <point x="192" y="218" type="line"/>
      <point x="312" y="218" type="line" smooth="yes"/>
      <point x="343" y="218"/>
      <point x="363.871" y="203.939"/>
      <point x="379" y="172" type="curve" smooth="yes"/>
      <point x="433" y="58" type="line" smooth="yes"/>
      <point x="459.043" y="3.02034"/>
      <point x="496" y="-2"/>
      <point x="542" y="-2" type="curve"/>
      <point x="571" y="-1"/>
      <point x="602" y="0"/>
      <point x="631" y="0" type="curve"/>
      <point x="634" y="5"/>
      <point x="636" y="11"/>
      <point x="636" y="17" type="curve" smooth="yes"/>
      <point x="636" y="22"/>
      <point x="634" y="27"/>
      <point x="631" y="32" type="curve"/>
      <point x="592" y="37"/>
      <point x="576.895" y="45.9447"/>
      <point x="549" y="99" type="curve" smooth="yes"/>
      <point x="498" y="196" type="line" smooth="yes"/>
      <point x="484.887" y="220.941"/>
      <point x="457" y="235"/>
      <point x="424" y="244" type="curve"/>
      <point x="424" y="248" type="line"/>
      <point x="443" y="262"/>
      <point x="458.71" y="283.134"/>
      <point x="469" y="305" type="curve" smooth="yes"/>
      <point x="482.712" y="334.137"/>
      <point x="499" y="346"/>
      <point x="520" y="346" type="curve" smooth="yes"/>
      <point x="533" y="346"/>
      <point x="544" y="341"/>
      <point x="558" y="341" type="curve" smooth="yes"/>
      <point x="585" y="341"/>
      <point x="607" y="360"/>
      <point x="607" y="391" type="curve" smooth="yes"/>
      <point x="607" y="423"/>
      <point x="583" y="444"/>
      <point x="543" y="444" type="curve" smooth="yes"/>
      <point x="483" y="444"/>
      <point x="461.828" y="399.082"/>
      <point x="440" y="353" type="curve" smooth="yes"/>
      <point x="416.828" y="304.081"/>
      <point x="393" y="253"/>
      <point x="318" y="253" type="curve" smooth="yes"/>
      <point x="192" y="253" type="line"/>
    </contour>
  </outline>
</glyph>
<glyph name="dramsignarmn" format="2">
  <advance width="551"/>
  <unicode hex="058F"/>
  <outline>
    <contour>
      <point x="167" y="225" type="curve" smooth="yes"/>
      <point x="501.9" y="225.05" type="line" smooth="yes"/>
      <point x="512.85" y="225.052"/>
      <point x="527" y="236.45"/>
      <point x="527" y="253.9" type="curve" smooth="yes"/>
      <point x="527" y="263.25"/>
      <point x="523.55" y="272.995"/>
      <point x="516.9" y="273" type="curve" smooth="yes"/>
      <point x="182" y="273.25" type="line" smooth="yes"/>
      <point x="173" y="273.257"/>
      <point x="157" y="262.7"/>
      <point x="157" y="242" type="curve" smooth="yes"/>
      <point x="157" y="233.7"/>
      <point x="160.25" y="224.999"/>
    </contour>
    <contour>
      <point x="167" y="339.275" type="curve" smooth="yes"/>
      <point x="501.9" y="339.275" type="line" smooth="yes"/>
      <point x="512.85" y="339.275"/>
      <point x="527" y="350.45"/>
      <point x="527" y="367.9" type="curve" smooth="yes"/>
      <point x="527" y="377.25"/>
      <point x="523.55" y="386.954"/>
      <point x="516.9" y="386.95" type="curve" smooth="yes"/>
      <point x="182" y="386.75" type="line" smooth="yes"/>
      <point x="173" y="386.744"/>
      <point x="157" y="376.2"/>
      <point x="157" y="355.5" type="curve" smooth="yes"/>
      <point x="157" y="347.15"/>
      <point x="160.25" y="339.275"/>
    </contour>
    <contour>
      <point x="308" y="122.152" type="line"/>
      <point x="448" y="122.152" type="line"/>
      <point x="448.255" y="479.528" type="line" smooth="yes"/>
      <point x="448.329" y="583.609"/>
      <point x="354.524" y="658"/>
      <point x="224" y="658" type="curve" smooth="yes"/>
      <point x="107.754" y="658"/>
      <point x="17" y="600.055"/>
      <point x="17" y="525.834" type="curve" smooth="yes"/>
      <point x="17" y="495.783"/>
      <point x="51" y="477.753"/>
      <point x="81" y="477.753" type="curve" smooth="yes"/>
      <point x="104" y="477.753"/>
      <point x="145" y="486.768"/>
      <point x="145" y="519.824" type="curve" smooth="yes"/>
      <point x="145" y="531.139"/>
      <point x="141" y="542.248"/>
      <point x="141" y="553.882" type="curve" smooth="yes"/>
      <point x="141" y="588.428"/>
      <point x="182.093" y="624"/>
      <point x="222" y="624" type="curve" smooth="yes"/>
      <point x="276.678" y="624"/>
      <point x="307.873" y="577.839"/>
      <point x="307.895" y="496.895" type="curve" smooth="yes"/>
    </contour>
    <contour>
      <point x="225" y="-2" type="curve"/>
      <point x="265" y="-1"/>
      <point x="339" y="0"/>
      <point x="379" y="0" type="curve" smooth="yes"/>
      <point x="419" y="0"/>
      <point x="491" y="-1"/>
      <point x="531" y="-2" type="curve"/>
      <point x="541" y="4"/>
      <point x="541" y="26"/>
      <point x="531" y="32" type="curve"/>
      <point x="476" y="35.0051"/>
      <point x="448" y="39.0119"/>
      <point x="448" y="122.152" type="curve"/>
      <point x="308" y="122.152" type="line"/>
      <point x="308" y="39.0119"/>
      <point x="280" y="35.0051"/>
      <point x="225" y="32" type="curve"/>
      <point x="215" y="26"/>
      <point x="215" y="4"/>
    </contour>
  </outline>
</glyph>
<glyph name="uni05DC" format="2">
  <advance width="476"/>
  <unicode hex="05DC"/>
  <outline>
    <contour>
      <point x="105" y="556" type="curve" smooth="yes"/>
      <point x="105" y="569"/>
      <point x="109" y="586"/>
      <point x="113" y="597" type="curve"/>
      <point x="112" y="597" type="line"/>
      <point x="116" y="608"/>
      <point x="133" y="672"/>
      <point x="133" y="675" type="curve" smooth="yes"/>
      <point x="133" y="698"/>
      <point x="103" y="712"/>
      <point x="78" y="719" type="curve"/>
      <point x="75" y="720"/>
      <point x="67" y="724"/>
      <point x="62" y="750" type="curve"/>
      <point x="49" y="747"/>
      <point x="-8" y="734"/>
      <point x="-8" y="694" type="curve" smooth="yes"/>
      <point x="-8" y="677"/>
      <point x="13" y="666"/>
      <point x="30" y="659" type="curve"/>
      <point x="34" y="657"/>
      <point x="37" y="656"/>
      <point x="40" y="655" type="curve"/>
      <point x="47" y="653"/>
      <point x="57" y="648"/>
      <point x="57" y="630" type="curve" smooth="yes"/>
      <point x="57" y="623"/>
      <point x="54" y="612"/>
      <point x="51" y="603" type="curve" smooth="yes"/>
      <point x="50" y="600"/>
      <point x="49" y="597"/>
      <point x="48" y="595" type="curve"/>
      <point x="35" y="563"/>
      <point x="21" y="523"/>
      <point x="21" y="478" type="curve" smooth="yes"/>
      <point x="21" y="434"/>
      <point x="56" y="412"/>
      <point x="111" y="408" type="curve"/>
      <point x="116" y="408"/>
      <point x="121" y="408"/>
      <point x="126" y="408" type="curve" smooth="yes"/>
      <point x="277" y="408" type="line" smooth="yes"/>
      <point x="339" y="408"/>
      <point x="348" y="378"/>
      <point x="348" y="332" type="curve" smooth="yes"/>
      <point x="348" y="275"/>
      <point x="339" y="256"/>
      <point x="309" y="224" type="curve"/>
      <point x="304" y="218"/>
      <point x="298" y="212"/>
      <point x="291" y="205" type="curve" smooth="yes"/>
      <point x="256" y="169"/>
      <point x="176" y="86"/>
      <point x="176" y="33" type="curve" smooth="yes"/>
      <point x="176" y="4"/>
      <point x="193" y="-11"/>
      <point x="230" y="-11" type="curve" smooth="yes"/>
      <point x="266" y="-11"/>
      <point x="284" y="3"/>
      <point x="284" y="29" type="curve" smooth="yes"/>
      <point x="284" y="32"/>
      <point x="283" y="38"/>
      <point x="282" y="44" type="curve"/>
      <point x="281" y="49"/>
      <point x="280" y="55"/>
      <point x="280" y="64" type="curve" smooth="yes"/>
      <point x="280" y="101"/>
      <point x="310" y="136"/>
      <point x="351" y="181" type="curve" smooth="yes"/>
      <point x="425" y="265"/>
      <point x="434" y="278"/>
      <point x="434" y="361" type="curve" smooth="yes"/>
      <point x="434" y="466"/>
      <point x="423" y="517"/>
      <point x="331" y="522" type="curve"/>
      <point x="326" y="522"/>
      <point x="321" y="522"/>
      <point x="316" y="522" type="curve" smooth="yes"/>
      <point x="148" y="522" type="line" smooth="yes"/>
      <point x="124" y="522"/>
      <point x="105" y="526"/>
    </contour>
  </outline>
</glyph>
<glyph name="uni1FCF" format="2">
  <advance width="320"/>
  <unicode hex="1FCF"/>
  <anchor x="163" y="510" name="_t.gr"/>
  <outline>
    <component base="uni02BC" xOffset="75.622" yOffset="10"/>
    <contour>
      <point x="230" y="754" type="curve" smooth="yes"/>
      <point x="211" y="754"/>
      <point x="194.273" y="766.343"/>
      <point x="178" y="779" type="curve" smooth="yes"/>
      <point x="158.266" y="794.349"/>
      <point x="136" y="810"/>
      <point x="105" y="810" type="curve" smooth="yes"/>
      <point x="62" y="810"/>
      <point x="40" y="773"/>
      <point x="26" y="708" type="curve"/>
      <point x="32.2616" y="703.344"/>
      <point x="41.6207" y="699.591"/>
      <point x="52" y="700" type="curve"/>
      <point x="61" y="737"/>
      <point x="73" y="751"/>
      <point x="99" y="751" type="curve" smooth="yes"/>
      <point x="116" y="751"/>
      <point x="134.963" y="738.949"/>
      <point x="153" y="726" type="curve" smooth="yes"/>
      <point x="173.964" y="710.949"/>
      <point x="195" y="697"/>
      <point x="217" y="697" type="curve" smooth="yes"/>
      <point x="263" y="697"/>
      <point x="291" y="735"/>
      <point x="304" y="801" type="curve"/>
      <point x="296.68" y="806.387"/>
      <point x="287.974" y="810"/>
      <point x="278" y="811" type="curve"/>
      <point x="264" y="764"/>
      <point x="251" y="754"/>
    </contour>
  </outline>
</glyph>
<glyph name="uni2172" format="2">
  <advance width="902"/>
  <unicode hex="2172"/>
  <outline>
    <contour>
      <point x="101" y="596" type="curve" smooth="yes"/>
      <point x="101" y="563"/>
      <point x="125" y="530"/>
      <point x="165" y="530" type="curve" smooth="yes"/>
      <point x="210" y="530"/>
      <point x="236" y="566"/>
      <point x="236" y="592" type="curve" smooth="yes"/>
      <point x="236" y="622"/>
      <point x="213" y="658"/>
      <point x="171" y="658" type="curve" smooth="yes"/>
      <point x="124" y="658"/>
      <point x="101" y="626"/>
    </contour>
    <contour>
      <point x="234" y="307" type="line" smooth="yes"/>
      <point x="234" y="390"/>
      <point x="250" y="399"/>
      <point x="311" y="402" type="curve"/>
      <point x="317" y="408"/>
      <point x="317" y="430"/>
      <point x="311" y="436" type="curve"/>
      <point x="269" y="435"/>
      <point x="224" y="434"/>
      <point x="169" y="434" type="curve" smooth="yes"/>
      <point x="114" y="434"/>
      <point x="70" y="435"/>
      <point x="27" y="436" type="curve"/>
      <point x="21" y="430"/>
      <point x="21" y="408"/>
      <point x="27" y="402" type="curve"/>
      <point x="88" y="399"/>
      <point x="104" y="390"/>
      <point x="104" y="307" type="curve" smooth="yes"/>
      <point x="104" y="127" type="line" smooth="yes"/>
      <point x="104" y="44"/>
      <point x="88" y="35"/>
      <point x="27" y="32" type="curve"/>
      <point x="21" y="26"/>
      <point x="21" y="4"/>
      <point x="27" y="-2" type="curve"/>
      <point x="69" y="-1"/>
      <point x="114" y="0"/>
      <point x="169" y="0" type="curve" smooth="yes"/>
      <point x="224" y="0"/>
      <point x="268" y="-1"/>
      <point x="311" y="-2" type="curve"/>
      <point x="317" y="4"/>
      <point x="317" y="26"/>
      <point x="311" y="32" type="curve"/>
      <point x="250" y="35"/>
      <point x="234" y="44"/>
      <point x="234" y="127" type="curve" smooth="yes"/>
    </contour>
    <contour>
      <point x="383" y="596" type="curve" smooth="yes"/>
      <point x="383" y="563"/>
      <point x="407" y="530"/>
      <point x="447" y="530" type="curve" smooth="yes"/>
      <point x="492" y="530"/>
      <point x="518" y="566"/>
      <point x="518" y="592" type="curve" smooth="yes"/>
      <point x="518" y="622"/>
      <point x="495" y="658"/>
      <point x="453" y="658" type="curve" smooth="yes"/>
      <point x="406" y="658"/>
      <point x="383" y="626"/>
    </contour>
    <contour>
      <point x="516" y="307" type="line" smooth="yes"/>
      <point x="516" y="390"/>
      <point x="532" y="399"/>
      <point x="593" y="402" type="curve"/>
      <point x="599" y="408"/>
      <point x="599" y="430"/>
      <point x="593" y="436" type="curve"/>
      <point x="551" y="435"/>
      <point x="506" y="434"/>
      <point x="451" y="434" type="curve" smooth="yes"/>
      <point x="396" y="434"/>
      <point x="352" y="435"/>
      <point x="309" y="436" type="curve"/>
      <point x="303" y="430"/>
      <point x="303" y="408"/>
      <point x="309" y="402" type="curve"/>
      <point x="370" y="399"/>
      <point x="386" y="390"/>
      <point x="386" y="307" type="curve" smooth="yes"/>
      <point x="386" y="127" type="line" smooth="yes"/>
      <point x="386" y="44"/>
      <point x="370" y="35"/>
      <point x="309" y="32" type="curve"/>
      <point x="303" y="26"/>
      <point x="303" y="4"/>
      <point x="309" y="-2" type="curve"/>
      <point x="351" y="-1"/>
      <point x="396" y="0"/>
      <point x="451" y="0" type="curve" smooth="yes"/>
      <point x="506" y="0"/>
      <point x="550" y="-1"/>
      <point x="593" y="-2" type="curve"/>
      <point x="599" y="4"/>
      <point x="599" y="26"/>
      <point x="593" y="32" type="curve"/>
      <point x="532" y="35"/>
      <point x="516" y="44"/>
      <point x="516" y="127" type="curve" smooth="yes"/>
    </contour>
    <contour>
      <point x="665" y="596" type="curve" smooth="yes"/>
      <point x="665" y="563"/>
      <point x="689" y="530"/>
      <point x="729" y="530" type="curve" smooth="yes"/>
      <point x="774" y="530"/>
      <point x="800" y="566"/>
      <point x="800" y="592" type="curve" smooth="yes"/>
      <point x="800" y="622"/>
      <point x="777" y="658"/>
      <point x="735" y="658" type="curve" smooth="yes"/>
      <point x="688" y="658"/>
      <point x="665" y="626"/>
    </contour>
    <contour>
      <point x="798" y="307" type="line" smooth="yes"/>
      <point x="798" y="390"/>
      <point x="814" y="399"/>
      <point x="875" y="402" type="curve"/>
      <point x="881" y="408"/>
      <point x="881" y="430"/>
      <point x="875" y="436" type="curve"/>
      <point x="833" y="435"/>
      <point x="788" y="434"/>
      <point x="733" y="434" type="curve" smooth="yes"/>
      <point x="678" y="434"/>
      <point x="634" y="435"/>
      <point x="591" y="436" type="curve"/>
      <point x="585" y="430"/>
      <point x="585" y="408"/>
      <point x="591" y="402" type="curve"/>
      <point x="652" y="399"/>
      <point x="668" y="390"/>
      <point x="668" y="307" type="curve" smooth="yes"/>
      <point x="668" y="127" type="line" smooth="yes"/>
      <point x="668" y="44"/>
      <point x="652" y="35"/>
      <point x="591" y="32" type="curve"/>
      <point x="585" y="26"/>
      <point x="585" y="4"/>
      <point x="591" y="-2" type="curve"/>
      <point x="633" y="-1"/>
      <point x="678" y="0"/>
      <point x="733" y="0" type="curve" smooth="yes"/>
      <point x="788" y="0"/>
      <point x="832" y="-1"/>
      <point x="875" y="-2" type="curve"/>
      <point x="881" y="4"/>
      <point x="881" y="26"/>
      <point x="875" y="32" type="curve"/>
      <point x="814" y="35"/>
      <point x="798" y="44"/>
      <point x="798" y="127" type="curve" smooth="yes"/>
    </contour>
  </outline>
</glyph>
<glyph name="uni2175" format="2">
  <advance width="842"/>
  <unicode hex="2175"/>
  <outline>
    <contour>
      <point x="359" y="402" type="curve"/>
      <point x="394.487" y="399.371"/>
      <point x="409.676" y="391.56"/>
      <point x="409.676" y="372.039" type="curve" smooth="yes"/>
      <point x="409.676" y="361.855"/>
      <point x="405.547" y="348.482"/>
      <point x="398" y="331" type="curve" smooth="yes"/>
      <point x="321.158" y="153" type="line" smooth="yes"/>
      <point x="316.327" y="141.81"/>
      <point x="312.819" y="139.386"/>
      <point x="308" y="153" type="curve" smooth="yes"/>
      <point x="245" y="331" type="line" smooth="yes"/>
      <point x="239.548" y="346.403"/>
      <point x="231.468" y="373.539"/>
      <point x="231.468" y="378.887" type="curve" smooth="yes"/>
      <point x="231.468" y="392.386"/>
      <point x="241.4" y="398.911"/>
      <point x="276" y="402" type="curve"/>
      <point x="282" y="408"/>
      <point x="282" y="430"/>
      <point x="276" y="436" type="curve"/>
      <point x="239" y="435"/>
      <point x="199" y="434"/>
      <point x="150" y="434" type="curve" smooth="yes"/>
      <point x="108.963" y="434"/>
      <point x="68.0146" y="434.586"/>
      <point x="27" y="436" type="curve"/>
      <point x="21" y="430"/>
      <point x="21" y="408"/>
      <point x="27" y="402" type="curve"/>
      <point x="67.9117" y="396.989"/>
      <point x="87" y="375"/>
      <point x="107" y="325" type="curve" smooth="yes"/>
      <point x="238" y="9" type="line" smooth="yes"/>
      <point x="244" y="-6"/>
      <point x="261" y="-12"/>
      <point x="274" y="-12" type="curve" smooth="yes"/>
      <point x="284" y="-12"/>
      <point x="304" y="-10"/>
      <point x="313" y="11" type="curve" smooth="yes"/>
      <point x="450" y="324" type="line" smooth="yes"/>
      <point x="470" y="369"/>
      <point x="483" y="397"/>
      <point x="536" y="402" type="curve"/>
      <point x="542" y="408"/>
      <point x="542" y="430"/>
      <point x="536" y="436" type="curve"/>
      <point x="514" y="435"/>
      <point x="482" y="434"/>
      <point x="460" y="434" type="curve" smooth="yes"/>
      <point x="423" y="434"/>
      <point x="386" y="435"/>
      <point x="359" y="436" type="curve"/>
      <point x="353" y="430"/>
      <point x="353" y="408"/>
    </contour>
    <contour>
      <point x="605" y="596" type="curve" smooth="yes"/>
      <point x="605" y="563"/>
      <point x="629" y="530"/>
      <point x="669" y="530" type="curve" smooth="yes"/>
      <point x="714" y="530"/>
      <point x="740" y="566"/>
      <point x="740" y="592" type="curve" smooth="yes"/>
      <point x="740" y="622"/>
      <point x="717" y="658"/>
      <point x="675" y="658" type="curve" smooth="yes"/>
      <point x="628" y="658"/>
      <point x="605" y="626"/>
    </contour>
    <contour>
      <point x="738" y="307" type="line" smooth="yes"/>
      <point x="738" y="390"/>
      <point x="754" y="399"/>
      <point x="815" y="402" type="curve"/>
      <point x="821" y="408"/>
      <point x="821" y="430"/>
      <point x="815" y="436" type="curve"/>
      <point x="773" y="435"/>
      <point x="728" y="434"/>
      <point x="673" y="434" type="curve" smooth="yes"/>
      <point x="618" y="434"/>
      <point x="574" y="435"/>
      <point x="531" y="436" type="curve"/>
      <point x="525" y="430"/>
      <point x="525" y="408"/>
      <point x="531" y="402" type="curve"/>
      <point x="592" y="399"/>
      <point x="608" y="390"/>
      <point x="608" y="307" type="curve" smooth="yes"/>
      <point x="608" y="127" type="line" smooth="yes"/>
      <point x="608" y="44"/>
      <point x="592" y="35"/>
      <point x="531" y="32" type="curve"/>
      <point x="525" y="26"/>
      <point x="525" y="4"/>
      <point x="531" y="-2" type="curve"/>
      <point x="573" y="-1"/>
      <point x="618" y="0"/>
      <point x="673" y="0" type="curve" smooth="yes"/>
      <point x="728" y="0"/>
      <point x="772" y="-1"/>
      <point x="815" y="-2" type="curve"/>
      <point x="821" y="4"/>
      <point x="821" y="26"/>
      <point x="815" y="32" type="curve"/>
      <point x="754" y="35"/>
      <point x="738" y="44"/>
      <point x="738" y="127" type="curve" smooth="yes"/>
    </contour>
  </outline>
</glyph>
<glyph name="uni2183" format="2">
  <advance width="632"/>
  <unicode hex="2183"/>
  <outline>
    <contour>
      <point x="259" y="-9" type="curve" smooth="yes"/>
      <point x="349" y="-9"/>
      <point x="421" y="6"/>
      <point x="481" y="49" type="curve" smooth="yes"/>
      <point x="556" y="103"/>
      <point x="594" y="206"/>
      <point x="594" y="293" type="curve" smooth="yes"/>
      <point x="594" y="304"/>
      <point x="594" y="314"/>
      <point x="593" y="325" type="curve" smooth="yes"/>
      <point x="579" y="499"/>
      <point x="446" y="600"/>
      <point x="286" y="611" type="curve"/>
      <point x="277" y="612"/>
      <point x="268" y="612"/>
      <point x="258" y="612" type="curve" smooth="yes"/>
      <point x="144" y="612"/>
      <point x="101" y="575"/>
      <point x="54" y="570" type="curve"/>
      <point x="46" y="519"/>
      <point x="39" y="474"/>
      <point x="34" y="426" type="curve"/>
      <point x="45" y="420"/>
      <point x="63" y="417"/>
      <point x="74" y="421" type="curve"/>
      <point x="98" y="501"/>
      <point x="140" y="573"/>
      <point x="268" y="573" type="curve" smooth="yes"/>
      <point x="379" y="573"/>
      <point x="453" y="456"/>
      <point x="453" y="311" type="curve" smooth="yes"/>
      <point x="453" y="176"/>
      <point x="380" y="57"/>
      <point x="283" y="41" type="curve"/>
      <point x="275" y="40"/>
      <point x="268" y="39"/>
      <point x="260" y="39" type="curve" smooth="yes"/>
      <point x="195" y="39"/>
      <point x="119" y="63"/>
      <point x="53" y="136" type="curve"/>
      <point x="43" y="136"/>
      <point x="27" y="124"/>
      <point x="22" y="116" type="curve"/>
      <point x="85" y="33"/>
      <point x="169" y="-9"/>
    </contour>
  </outline>
</glyph>
<glyph name="nine.numr" format="2">
  <advance width="303"/>
  <outline>
    <contour>
      <point x="24" y="545.224" type="curve" smooth="yes"/>
      <point x="24" y="526.471"/>
      <point x="33" y="444.172"/>
      <point x="144" y="444.172" type="curve" smooth="yes"/>
      <point x="159" y="444.172"/>
      <point x="175" y="448.172"/>
      <point x="189" y="453.172" type="curve"/>
      <point x="173" y="399.172"/>
      <point x="133" y="337.172"/>
      <point x="40" y="320.172" type="curve"/>
      <point x="40" y="299.172" type="line"/>
      <point x="215" y="313.172"/>
      <point x="279" y="422.172"/>
      <point x="279" y="511.666" type="curve" smooth="yes"/>
      <point x="279" y="603.006"/>
      <point x="240.38" y="659.172"/>
      <point x="145" y="659.172" type="curve" smooth="yes"/>
      <point x="56" y="659.172"/>
      <point x="24" y="585.692"/>
    </contour>
    <contour>
      <point x="109" y="550.159" type="curve" smooth="yes"/>
      <point x="109" y="587.666"/>
      <point x="113" y="625.172"/>
      <point x="145" y="625.172" type="curve" smooth="yes"/>
      <point x="174" y="625.172"/>
      <point x="197" y="597.536"/>
      <point x="197" y="513.64" type="curve" smooth="yes"/>
      <point x="197" y="487.977" type="line"/>
      <point x="182" y="476.133"/>
      <point x="172" y="473.172"/>
      <point x="155" y="473.172" type="curve" smooth="yes"/>
      <point x="114" y="473.172"/>
      <point x="109" y="528.445"/>
    </contour>
  </outline>
</glyph>
<glyph name="r.sc" format="2">
  <advance width="577"/>
  <outline>
    <contour>
      <point x="27" y="-2" type="curve"/>
      <point x="69" y="-1"/>
      <point x="114" y="0"/>
      <point x="169" y="0" type="curve" smooth="yes"/>
      <point x="224" y="0"/>
      <point x="268" y="-1"/>
      <point x="311" y="-2" type="curve"/>
      <point x="317" y="4"/>
      <point x="317" y="26"/>
      <point x="311" y="32" type="curve"/>
      <point x="250" y="35"/>
      <point x="234" y="44"/>
      <point x="234" y="127" type="curve" smooth="yes"/>
      <point x="234" y="459.999" type="line"/>
      <point x="114" y="460"/>
      <point x="70" y="461"/>
      <point x="27" y="462" type="curve"/>
      <point x="21" y="456"/>
      <point x="21" y="434"/>
      <point x="27" y="428" type="curve"/>
      <point x="88" y="425"/>
      <point x="104" y="416"/>
      <point x="104" y="333" type="curve" smooth="yes"/>
      <point x="104" y="127" type="line" smooth="yes"/>
      <point x="104" y="44"/>
      <point x="88" y="35"/>
      <point x="27" y="32" type="curve"/>
      <point x="21" y="26"/>
      <point x="21" y="4"/>
    </contour>
    <contour>
      <point x="234" y="330.2" type="line"/>
      <point x="234" y="364.086" type="line" smooth="yes"/>
      <point x="234" y="406.876"/>
      <point x="265.9" y="428"/>
      <point x="296" y="428" type="curve" smooth="yes"/>
      <point x="358.27" y="428"/>
      <point x="376.676" y="378.926"/>
      <point x="376.875" y="325.99" type="curve" smooth="yes"/>
      <point x="377.086" y="269.811"/>
      <point x="343.566" y="240"/>
      <point x="280" y="240" type="curve" smooth="yes"/>
      <point x="219" y="240" type="line"/>
      <point x="219" y="207" type="line"/>
      <point x="277.932" y="207" type="line" smooth="yes"/>
      <point x="291.975" y="207"/>
      <point x="308.109" y="183.4"/>
      <point x="331.822" y="131.96" type="curve" smooth="yes"/>
      <point x="359" y="73" type="line" smooth="yes"/>
      <point x="380.131" y="27.1583"/>
      <point x="437" y="-9"/>
      <point x="493" y="-9" type="curve" smooth="yes"/>
      <point x="530" y="-9"/>
      <point x="559" y="-7"/>
      <point x="568" y="-2" type="curve"/>
      <point x="571" y="4"/>
      <point x="571" y="23"/>
      <point x="567" y="30" type="curve"/>
      <point x="540" y="36"/>
      <point x="506.757" y="58.1334"/>
      <point x="490" y="91" type="curve" smooth="yes"/>
      <point x="453.822" y="161.96" type="line" smooth="yes"/>
      <point x="439.905" y="189.257"/>
      <point x="420.321" y="213.312"/>
      <point x="407" y="219" type="curve"/>
      <point x="407" y="221" type="line"/>
      <point x="483" y="244"/>
      <point x="516" y="294"/>
      <point x="516" y="345" type="curve" smooth="yes"/>
      <point x="516" y="442.928"/>
      <point x="410.607" y="466.805"/>
      <point x="327.841" y="466.962" type="curve" smooth="yes"/>
      <point x="270.892" y="467.07"/>
      <point x="214.056" y="460"/>
      <point x="157" y="460" type="curve"/>
      <point x="156.795" y="330.217" type="line"/>
    </contour>
  </outline>
</glyph>
<glyph name="seven.numr" format="2">
  <advance width="293"/>
  <outline>
    <contour>
      <point x="210.445" y="593" type="line"/>
      <point x="167.888" y="546.415"/>
      <point x="88" y="417"/>
      <point x="42.4216" y="300.816" type="curve"/>
      <point x="43.5783" y="299.184" type="line"/>
      <point x="130" y="303" type="line"/>
      <point x="162" y="412"/>
      <point x="230" y="559"/>
      <point x="283" y="649" type="curve"/>
      <point x="267" y="660" type="line"/>
      <point x="250" y="656"/>
      <point x="228" y="653"/>
      <point x="190" y="653" type="curve" smooth="yes"/>
      <point x="84" y="653" type="line" smooth="yes"/>
      <point x="64.4339" y="653"/>
      <point x="53.714" y="656.327"/>
      <point x="35" y="659" type="curve"/>
      <point x="32.26" y="659"/>
      <point x="30" y="656.74"/>
      <point x="30" y="654" type="curve"/>
      <point x="29" y="613"/>
      <point x="18" y="581"/>
      <point x="10" y="536" type="curve"/>
      <point x="41" y="534" type="line"/>
      <point x="55.9418" y="577.467"/>
      <point x="86.0909" y="593"/>
      <point x="129" y="593" type="curve" smooth="yes"/>
    </contour>
  </outline>
</glyph>
<glyph name="six.numr" format="2">
  <advance width="303"/>
  <outline>
    <contour>
      <point x="279" y="412" type="curve" smooth="yes"/>
      <point x="279" y="477.651"/>
      <point x="235.836" y="514"/>
      <point x="159" y="514" type="curve" smooth="yes"/>
      <point x="144" y="514"/>
      <point x="128" y="511"/>
      <point x="114" y="505" type="curve"/>
      <point x="130" y="559"/>
      <point x="170" y="620"/>
      <point x="263" y="638" type="curve"/>
      <point x="263" y="659" type="line"/>
      <point x="88" y="645"/>
      <point x="24" y="535"/>
      <point x="24" y="446" type="curve" smooth="yes"/>
      <point x="24" y="354.76"/>
      <point x="75.1132" y="299"/>
      <point x="158" y="299" type="curve" smooth="yes"/>
      <point x="247" y="299"/>
      <point x="279" y="371"/>
    </contour>
    <contour>
      <point x="194" y="407" type="curve" smooth="yes"/>
      <point x="194" y="369"/>
      <point x="190" y="331"/>
      <point x="158" y="331" type="curve" smooth="yes"/>
      <point x="129" y="331"/>
      <point x="106" y="358"/>
      <point x="106" y="444" type="curve" smooth="yes"/>
      <point x="106" y="453"/>
      <point x="106" y="461"/>
      <point x="106" y="470" type="curve"/>
      <point x="121" y="482"/>
      <point x="131" y="485"/>
      <point x="148" y="485" type="curve" smooth="yes"/>
      <point x="189" y="485"/>
      <point x="194" y="428"/>
    </contour>
  </outline>
</glyph>
<glyph name="uni03070304" format="2">
  <outline>
    <contour>
      <point x="-306.018" y="554" type="curve" smooth="yes"/>
      <point x="-306.018" y="524"/>
      <point x="-281.018" y="500"/>
      <point x="-251.018" y="500" type="curve" smooth="yes"/>
      <point x="-220.018" y="500"/>
      <point x="-196.018" y="524"/>
      <point x="-196.018" y="554" type="curve" smooth="yes"/>
      <point x="-196.018" y="585"/>
      <point x="-220.018" y="609"/>
      <point x="-251.018" y="609" type="curve" smooth="yes"/>
      <point x="-281.018" y="609"/>
      <point x="-306.018" y="585"/>
    </contour>
    <contour>
      <point x="-132" y="672" type="line" smooth="yes"/>
      <point x="-118" y="672"/>
      <point x="-106" y="692"/>
      <point x="-106" y="705" type="curve" smooth="yes"/>
      <point x="-106" y="713"/>
      <point x="-110" y="722"/>
      <point x="-120" y="722" type="curve" smooth="yes"/>
      <point x="-396" y="722" type="line" smooth="yes"/>
      <point x="-409" y="722"/>
      <point x="-421" y="702"/>
      <point x="-421" y="690" type="curve" smooth="yes"/>
      <point x="-421" y="681"/>
      <point x="-417" y="672"/>
      <point x="-406" y="672" type="curve" smooth="yes"/>
    </contour>
  </outline>
</glyph>
<glyph name="uni03080304" format="2">
  <outline>
    <contour>
      <point x="-400" y="554" type="curve" smooth="yes"/>
      <point x="-400" y="524"/>
      <point x="-375" y="500"/>
      <point x="-345" y="500" type="curve" smooth="yes"/>
      <point x="-314" y="500"/>
      <point x="-290" y="524"/>
      <point x="-290" y="554" type="curve" smooth="yes"/>
      <point x="-290" y="585"/>
      <point x="-314" y="609"/>
      <point x="-345" y="609" type="curve" smooth="yes"/>
      <point x="-375" y="609"/>
      <point x="-400" y="585"/>
    </contour>
    <contour>
      <point x="-214" y="554" type="curve" smooth="yes"/>
      <point x="-214" y="524"/>
      <point x="-190" y="500"/>
      <point x="-159" y="500" type="curve" smooth="yes"/>
      <point x="-129" y="500"/>
      <point x="-104" y="524"/>
      <point x="-104" y="554" type="curve" smooth="yes"/>
      <point x="-104" y="585"/>
      <point x="-129" y="609"/>
      <point x="-159" y="609" type="curve" smooth="yes"/>
      <point x="-190" y="609"/>
      <point x="-214" y="585"/>
    </contour>
    <contour>
      <point x="-132" y="672" type="line" smooth="yes"/>
      <point x="-118" y="672"/>
      <point x="-106" y="692"/>
      <point x="-106" y="705" type="curve" smooth="yes"/>
      <point x="-106" y="713"/>
      <point x="-110" y="722"/>
      <point x="-120" y="722" type="curve" smooth="yes"/>
      <point x="-396" y="722" type="line" smooth="yes"/>
      <point x="-409" y="722"/>
      <point x="-421" y="702"/>
      <point x="-421" y="690" type="curve" smooth="yes"/>
      <point x="-421" y="681"/>
      <point x="-417" y="672"/>
      <point x="-406" y="672" type="curve" smooth="yes"/>
    </contour>
  </outline>
</glyph>
